<mxfile host="Electron" modified="2024-06-16T22:13:36.159Z" agent="Mozilla/5.0 (Windows NT 10.0; Win64; x64) AppleWebKit/537.36 (KHTML, like Gecko) draw.io/24.5.3 Chrome/124.0.6367.207 Electron/30.0.6 Safari/537.36" etag="mDvXw4jiVk5tuwr975f_" version="24.5.3" type="device">
  <diagram name="Page-1" id="KxFUunisI3KA-j2Cj4el">
    <mxGraphModel dx="3668" dy="1688" grid="0" gridSize="10" guides="1" tooltips="1" connect="1" arrows="1" fold="1" page="0" pageScale="1" pageWidth="850" pageHeight="1100" math="0" shadow="0">
      <root>
        <mxCell id="0" />
        <mxCell id="1" parent="0" />
        <mxCell id="E2yAKOlgApOKbNNjwcf9-5" value="Controller" style="swimlane;fontStyle=1;align=center;verticalAlign=top;childLayout=stackLayout;horizontal=1;startSize=26;horizontalStack=0;resizeParent=1;resizeParentMax=0;resizeLast=0;collapsible=1;marginBottom=0;whiteSpace=wrap;html=1;" parent="1" vertex="1">
          <mxGeometry x="159" y="716" width="160" height="168" as="geometry" />
        </mxCell>
        <mxCell id="E2yAKOlgApOKbNNjwcf9-6" value="- current_user" style="text;strokeColor=none;fillColor=none;align=left;verticalAlign=top;spacingLeft=4;spacingRight=4;overflow=hidden;rotatable=0;points=[[0,0.5],[1,0.5]];portConstraint=eastwest;whiteSpace=wrap;html=1;" parent="E2yAKOlgApOKbNNjwcf9-5" vertex="1">
          <mxGeometry y="26" width="160" height="26" as="geometry" />
        </mxCell>
        <mxCell id="E2yAKOlgApOKbNNjwcf9-7" value="" style="line;strokeWidth=1;fillColor=none;align=left;verticalAlign=middle;spacingTop=-1;spacingLeft=3;spacingRight=3;rotatable=0;labelPosition=right;points=[];portConstraint=eastwest;strokeColor=inherit;" parent="E2yAKOlgApOKbNNjwcf9-5" vertex="1">
          <mxGeometry y="52" width="160" height="8" as="geometry" />
        </mxCell>
        <mxCell id="E2yAKOlgApOKbNNjwcf9-8" value="&lt;div&gt;- create_user()&lt;span style=&quot;background-color: initial;&quot;&gt;&lt;br&gt;&lt;/span&gt;&lt;/div&gt;&lt;div&gt;&lt;span style=&quot;background-color: initial;&quot;&gt;- login()&lt;/span&gt;&lt;br&gt;&lt;/div&gt;&lt;div&gt;- main_menu()&lt;/div&gt;&lt;div&gt;- create_task()&lt;/div&gt;&lt;div&gt;- confirmation()&lt;/div&gt;&lt;div&gt;- create_post()&lt;/div&gt;&lt;div&gt;&lt;br&gt;&lt;/div&gt;" style="text;strokeColor=none;fillColor=none;align=left;verticalAlign=top;spacingLeft=4;spacingRight=4;overflow=hidden;rotatable=0;points=[[0,0.5],[1,0.5]];portConstraint=eastwest;whiteSpace=wrap;html=1;" parent="E2yAKOlgApOKbNNjwcf9-5" vertex="1">
          <mxGeometry y="60" width="160" height="108" as="geometry" />
        </mxCell>
        <mxCell id="E2yAKOlgApOKbNNjwcf9-13" value="Viewing_user" style="swimlane;fontStyle=1;align=center;verticalAlign=top;childLayout=stackLayout;horizontal=1;startSize=26;horizontalStack=0;resizeParent=1;resizeParentMax=0;resizeLast=0;collapsible=1;marginBottom=0;whiteSpace=wrap;html=1;" parent="1" vertex="1">
          <mxGeometry x="158" y="1004" width="160" height="223" as="geometry" />
        </mxCell>
        <mxCell id="E2yAKOlgApOKbNNjwcf9-14" value="&lt;div&gt;+ username: str&lt;/div&gt;&lt;div&gt;- password: str&lt;/div&gt;&lt;div&gt;+ email: str &lt;/div&gt;&lt;div&gt;&lt;br&gt;&lt;/div&gt;" style="text;strokeColor=none;fillColor=none;align=left;verticalAlign=top;spacingLeft=4;spacingRight=4;overflow=hidden;rotatable=0;points=[[0,0.5],[1,0.5]];portConstraint=eastwest;whiteSpace=wrap;html=1;" parent="E2yAKOlgApOKbNNjwcf9-13" vertex="1">
          <mxGeometry y="26" width="160" height="86" as="geometry" />
        </mxCell>
        <mxCell id="E2yAKOlgApOKbNNjwcf9-15" value="" style="line;strokeWidth=1;fillColor=none;align=left;verticalAlign=middle;spacingTop=-1;spacingLeft=3;spacingRight=3;rotatable=0;labelPosition=right;points=[];portConstraint=eastwest;strokeColor=inherit;" parent="E2yAKOlgApOKbNNjwcf9-13" vertex="1">
          <mxGeometry y="112" width="160" height="8" as="geometry" />
        </mxCell>
        <mxCell id="E2yAKOlgApOKbNNjwcf9-16" value="&lt;div&gt;+ get_username()&lt;/div&gt;&lt;div&gt;&lt;span style=&quot;background-color: initial;&quot;&gt;+ check_password()&lt;/span&gt;&lt;br&gt;&lt;/div&gt;&lt;div&gt;&lt;span style=&quot;background-color: initial;&quot;&gt;+ create_task()&lt;/span&gt;&lt;br&gt;&lt;/div&gt;&lt;div&gt;+ view_task()&lt;/div&gt;&lt;div&gt;&lt;br&gt;&lt;/div&gt;&lt;div&gt;&lt;br&gt;&lt;/div&gt;&lt;div&gt;&lt;br&gt;&lt;/div&gt;" style="text;strokeColor=none;fillColor=none;align=left;verticalAlign=top;spacingLeft=4;spacingRight=4;overflow=hidden;rotatable=0;points=[[0,0.5],[1,0.5]];portConstraint=eastwest;whiteSpace=wrap;html=1;" parent="E2yAKOlgApOKbNNjwcf9-13" vertex="1">
          <mxGeometry y="120" width="160" height="103" as="geometry" />
        </mxCell>
        <mxCell id="E2yAKOlgApOKbNNjwcf9-17" value="Admin" style="swimlane;fontStyle=1;align=center;verticalAlign=top;childLayout=stackLayout;horizontal=1;startSize=26;horizontalStack=0;resizeParent=1;resizeParentMax=0;resizeLast=0;collapsible=1;marginBottom=0;whiteSpace=wrap;html=1;" parent="1" vertex="1">
          <mxGeometry x="158" y="1421.5" width="160" height="85" as="geometry" />
        </mxCell>
        <mxCell id="E2yAKOlgApOKbNNjwcf9-19" value="" style="line;strokeWidth=1;fillColor=none;align=left;verticalAlign=middle;spacingTop=-1;spacingLeft=3;spacingRight=3;rotatable=0;labelPosition=right;points=[];portConstraint=eastwest;strokeColor=inherit;" parent="E2yAKOlgApOKbNNjwcf9-17" vertex="1">
          <mxGeometry y="26" width="160" height="8" as="geometry" />
        </mxCell>
        <mxCell id="E2yAKOlgApOKbNNjwcf9-20" value="&lt;div&gt;+ remove_user()&lt;/div&gt;&lt;div&gt;+ delete_task()&lt;br&gt;&lt;/div&gt;&lt;div&gt;&lt;br&gt;&lt;/div&gt;" style="text;strokeColor=none;fillColor=none;align=left;verticalAlign=top;spacingLeft=4;spacingRight=4;overflow=hidden;rotatable=0;points=[[0,0.5],[1,0.5]];portConstraint=eastwest;whiteSpace=wrap;html=1;" parent="E2yAKOlgApOKbNNjwcf9-17" vertex="1">
          <mxGeometry y="34" width="160" height="51" as="geometry" />
        </mxCell>
        <mxCell id="E2yAKOlgApOKbNNjwcf9-21" value="Task" style="swimlane;fontStyle=1;align=center;verticalAlign=top;childLayout=stackLayout;horizontal=1;startSize=26;horizontalStack=0;resizeParent=1;resizeParentMax=0;resizeLast=0;collapsible=1;marginBottom=0;whiteSpace=wrap;html=1;" parent="1" vertex="1">
          <mxGeometry x="461" y="1010" width="160" height="209" as="geometry" />
        </mxCell>
        <mxCell id="E2yAKOlgApOKbNNjwcf9-22" value="&lt;div&gt;+ title: str&lt;/div&gt;&lt;div&gt;+ description: str&lt;/div&gt;&lt;div&gt;+ deadline: date&lt;br&gt;&lt;/div&gt;&lt;div&gt;+ status: choice&lt;br&gt;&lt;/div&gt;&lt;div&gt;&lt;br&gt;&lt;/div&gt;" style="text;strokeColor=none;fillColor=none;align=left;verticalAlign=top;spacingLeft=4;spacingRight=4;overflow=hidden;rotatable=0;points=[[0,0.5],[1,0.5]];portConstraint=eastwest;whiteSpace=wrap;html=1;" parent="E2yAKOlgApOKbNNjwcf9-21" vertex="1">
          <mxGeometry y="26" width="160" height="62" as="geometry" />
        </mxCell>
        <mxCell id="E2yAKOlgApOKbNNjwcf9-23" value="" style="line;strokeWidth=1;fillColor=none;align=left;verticalAlign=middle;spacingTop=-1;spacingLeft=3;spacingRight=3;rotatable=0;labelPosition=right;points=[];portConstraint=eastwest;strokeColor=inherit;" parent="E2yAKOlgApOKbNNjwcf9-21" vertex="1">
          <mxGeometry y="88" width="160" height="8" as="geometry" />
        </mxCell>
        <mxCell id="E2yAKOlgApOKbNNjwcf9-24" value="&lt;div&gt;&lt;div&gt;+ get_user()&lt;br&gt;&lt;/div&gt;&lt;div&gt;+ title()&lt;/div&gt;&lt;div&gt;+ description()&lt;/div&gt;&lt;div&gt;+ deadline()&lt;br&gt;&lt;/div&gt;&lt;div&gt;+ confirmation()&lt;br&gt;&lt;/div&gt;&lt;div&gt;&lt;span style=&quot;background-color: initial;&quot;&gt;+ save()&lt;/span&gt;&lt;br&gt;&lt;/div&gt;&lt;/div&gt;&lt;div&gt;&lt;br&gt;&lt;/div&gt;" style="text;strokeColor=none;fillColor=none;align=left;verticalAlign=top;spacingLeft=4;spacingRight=4;overflow=hidden;rotatable=0;points=[[0,0.5],[1,0.5]];portConstraint=eastwest;whiteSpace=wrap;html=1;" parent="E2yAKOlgApOKbNNjwcf9-21" vertex="1">
          <mxGeometry y="96" width="160" height="113" as="geometry" />
        </mxCell>
        <mxCell id="E2yAKOlgApOKbNNjwcf9-27" value="" style="endArrow=block;html=1;rounded=0;exitX=0.5;exitY=1;exitDx=0;exitDy=0;entryX=0.5;entryY=0;entryDx=0;entryDy=0;endFill=0;" parent="1" target="E2yAKOlgApOKbNNjwcf9-13" edge="1">
          <mxGeometry width="50" height="50" relative="1" as="geometry">
            <mxPoint x="238" y="885" as="sourcePoint" />
            <mxPoint x="64" y="973" as="targetPoint" />
          </mxGeometry>
        </mxCell>
        <mxCell id="E2yAKOlgApOKbNNjwcf9-29" value="" style="endArrow=block;html=1;rounded=0;entryX=0.5;entryY=0;entryDx=0;entryDy=0;endFill=0;" parent="1" target="E2yAKOlgApOKbNNjwcf9-17" edge="1">
          <mxGeometry width="50" height="50" relative="1" as="geometry">
            <mxPoint x="238" y="1368" as="sourcePoint" />
            <mxPoint x="707" y="1167.5" as="targetPoint" />
          </mxGeometry>
        </mxCell>
        <mxCell id="M_4z1xcWnrcrxI7wYILl-1" value="Main_user" style="swimlane;fontStyle=1;align=center;verticalAlign=top;childLayout=stackLayout;horizontal=1;startSize=26;horizontalStack=0;resizeParent=1;resizeParentMax=0;resizeLast=0;collapsible=1;marginBottom=0;whiteSpace=wrap;html=1;" parent="1" vertex="1">
          <mxGeometry x="159" y="1281.5" width="160" height="85" as="geometry" />
        </mxCell>
        <mxCell id="M_4z1xcWnrcrxI7wYILl-2" value="" style="line;strokeWidth=1;fillColor=none;align=left;verticalAlign=middle;spacingTop=-1;spacingLeft=3;spacingRight=3;rotatable=0;labelPosition=right;points=[];portConstraint=eastwest;strokeColor=inherit;" parent="M_4z1xcWnrcrxI7wYILl-1" vertex="1">
          <mxGeometry y="26" width="160" height="8" as="geometry" />
        </mxCell>
        <mxCell id="M_4z1xcWnrcrxI7wYILl-3" value="&lt;div&gt;&lt;span style=&quot;background-color: initial;&quot;&gt;+ update_task()&lt;/span&gt;&lt;br&gt;&lt;/div&gt;&lt;div&gt;&lt;br&gt;&lt;/div&gt;" style="text;strokeColor=none;fillColor=none;align=left;verticalAlign=top;spacingLeft=4;spacingRight=4;overflow=hidden;rotatable=0;points=[[0,0.5],[1,0.5]];portConstraint=eastwest;whiteSpace=wrap;html=1;" parent="M_4z1xcWnrcrxI7wYILl-1" vertex="1">
          <mxGeometry y="34" width="160" height="51" as="geometry" />
        </mxCell>
        <mxCell id="M_4z1xcWnrcrxI7wYILl-4" value="" style="endArrow=block;html=1;rounded=0;entryX=0.5;entryY=0;entryDx=0;entryDy=0;endFill=0;" parent="1" target="M_4z1xcWnrcrxI7wYILl-1" edge="1">
          <mxGeometry width="50" height="50" relative="1" as="geometry">
            <mxPoint x="239" y="1228" as="sourcePoint" />
            <mxPoint x="708" y="1027.5" as="targetPoint" />
          </mxGeometry>
        </mxCell>
        <mxCell id="M_4z1xcWnrcrxI7wYILl-9" value="&amp;lt;&amp;lt;Extends&amp;gt;&amp;gt;" style="edgeLabel;html=1;align=center;verticalAlign=middle;resizable=0;points=[];" parent="M_4z1xcWnrcrxI7wYILl-4" vertex="1" connectable="0">
          <mxGeometry x="-0.2507" y="1" relative="1" as="geometry">
            <mxPoint as="offset" />
          </mxGeometry>
        </mxCell>
        <mxCell id="M_4z1xcWnrcrxI7wYILl-10" value="&amp;lt;&amp;lt;Extends&amp;gt;&amp;gt;" style="edgeLabel;html=1;align=center;verticalAlign=middle;resizable=0;points=[];" parent="1" vertex="1" connectable="0">
          <mxGeometry x="238" y="1390" as="geometry" />
        </mxCell>
        <mxCell id="M_4z1xcWnrcrxI7wYILl-14" value="" style="endArrow=none;html=1;rounded=0;dashed=1;dashPattern=1 2;exitX=0.006;exitY=0.156;exitDx=0;exitDy=0;exitPerimeter=0;" parent="1" source="E2yAKOlgApOKbNNjwcf9-24" edge="1">
          <mxGeometry relative="1" as="geometry">
            <mxPoint x="453" y="1125" as="sourcePoint" />
            <mxPoint x="319" y="1125" as="targetPoint" />
          </mxGeometry>
        </mxCell>
        <mxCell id="M_4z1xcWnrcrxI7wYILl-15" value="Many" style="resizable=0;html=1;whiteSpace=wrap;align=left;verticalAlign=bottom;" parent="M_4z1xcWnrcrxI7wYILl-14" connectable="0" vertex="1">
          <mxGeometry x="-1" relative="1" as="geometry">
            <mxPoint x="-34" as="offset" />
          </mxGeometry>
        </mxCell>
        <mxCell id="M_4z1xcWnrcrxI7wYILl-16" value="1" style="resizable=0;html=1;whiteSpace=wrap;align=right;verticalAlign=bottom;" parent="M_4z1xcWnrcrxI7wYILl-14" connectable="0" vertex="1">
          <mxGeometry x="1" relative="1" as="geometry">
            <mxPoint x="11" as="offset" />
          </mxGeometry>
        </mxCell>
        <mxCell id="M_4z1xcWnrcrxI7wYILl-23" value="" style="endArrow=none;html=1;rounded=0;dashed=1;dashPattern=1 2;entryX=1.005;entryY=0.181;entryDx=0;entryDy=0;entryPerimeter=0;" parent="1" target="M_4z1xcWnrcrxI7wYILl-3" edge="1">
          <mxGeometry relative="1" as="geometry">
            <mxPoint x="461" y="1151" as="sourcePoint" />
            <mxPoint x="326" y="1325" as="targetPoint" />
            <Array as="points">
              <mxPoint x="411" y="1151" />
              <mxPoint x="412" y="1324" />
            </Array>
          </mxGeometry>
        </mxCell>
        <mxCell id="M_4z1xcWnrcrxI7wYILl-24" value="Many" style="resizable=0;html=1;whiteSpace=wrap;align=left;verticalAlign=bottom;" parent="M_4z1xcWnrcrxI7wYILl-23" connectable="0" vertex="1">
          <mxGeometry x="-1" relative="1" as="geometry">
            <mxPoint x="-32" as="offset" />
          </mxGeometry>
        </mxCell>
        <mxCell id="M_4z1xcWnrcrxI7wYILl-25" value="1" style="resizable=0;html=1;whiteSpace=wrap;align=right;verticalAlign=bottom;" parent="M_4z1xcWnrcrxI7wYILl-23" connectable="0" vertex="1">
          <mxGeometry x="1" relative="1" as="geometry">
            <mxPoint x="17" as="offset" />
          </mxGeometry>
        </mxCell>
        <mxCell id="M_4z1xcWnrcrxI7wYILl-26" value="" style="endArrow=none;html=1;rounded=0;dashed=1;dashPattern=1 2;exitX=0.497;exitY=1.037;exitDx=0;exitDy=0;exitPerimeter=0;" parent="1" edge="1">
          <mxGeometry relative="1" as="geometry">
            <mxPoint x="553" y="1219" as="sourcePoint" />
            <mxPoint x="318" y="1469" as="targetPoint" />
            <Array as="points">
              <mxPoint x="553" y="1469" />
            </Array>
          </mxGeometry>
        </mxCell>
        <mxCell id="M_4z1xcWnrcrxI7wYILl-27" value="Many" style="resizable=0;html=1;whiteSpace=wrap;align=left;verticalAlign=bottom;" parent="M_4z1xcWnrcrxI7wYILl-26" connectable="0" vertex="1">
          <mxGeometry x="-1" relative="1" as="geometry">
            <mxPoint x="-39" y="25" as="offset" />
          </mxGeometry>
        </mxCell>
        <mxCell id="M_4z1xcWnrcrxI7wYILl-28" value="1" style="resizable=0;html=1;whiteSpace=wrap;align=right;verticalAlign=bottom;" parent="M_4z1xcWnrcrxI7wYILl-26" connectable="0" vertex="1">
          <mxGeometry x="1" relative="1" as="geometry">
            <mxPoint x="16" as="offset" />
          </mxGeometry>
        </mxCell>
        <mxCell id="ikzWXzJROYv2MbAgpShI-2" value="TaskForm" style="swimlane;fontStyle=1;align=center;verticalAlign=top;childLayout=stackLayout;horizontal=1;startSize=26;horizontalStack=0;resizeParent=1;resizeParentMax=0;resizeLast=0;collapsible=1;marginBottom=0;whiteSpace=wrap;html=1;" parent="1" vertex="1">
          <mxGeometry x="732" y="816" width="175" height="107" as="geometry" />
        </mxCell>
        <mxCell id="ikzWXzJROYv2MbAgpShI-3" value="" style="line;strokeWidth=1;fillColor=none;align=left;verticalAlign=middle;spacingTop=-1;spacingLeft=3;spacingRight=3;rotatable=0;labelPosition=right;points=[];portConstraint=eastwest;strokeColor=inherit;" parent="ikzWXzJROYv2MbAgpShI-2" vertex="1">
          <mxGeometry y="26" width="175" height="8" as="geometry" />
        </mxCell>
        <mxCell id="ikzWXzJROYv2MbAgpShI-4" value="&lt;div&gt;&lt;span class=&quot;hljs-operator&quot;&gt;-&lt;/span&gt; title&lt;/div&gt;&lt;div&gt;&lt;span class=&quot;hljs-operator&quot;&gt;-&lt;/span&gt; description&amp;nbsp;&lt;/div&gt;&lt;div&gt;&lt;span class=&quot;hljs-operator&quot;&gt;-&lt;/span&gt; deadline&amp;nbsp;&lt;/div&gt;&lt;div&gt;&lt;span class=&quot;hljs-operator&quot;&gt;-&lt;/span&gt; status&amp;nbsp; &amp;nbsp;&lt;br&gt;&lt;/div&gt;" style="text;strokeColor=none;fillColor=none;align=left;verticalAlign=top;spacingLeft=4;spacingRight=4;overflow=hidden;rotatable=0;points=[[0,0.5],[1,0.5]];portConstraint=eastwest;whiteSpace=wrap;html=1;" parent="ikzWXzJROYv2MbAgpShI-2" vertex="1">
          <mxGeometry y="34" width="175" height="73" as="geometry" />
        </mxCell>
        <mxCell id="ikzWXzJROYv2MbAgpShI-5" value="URLs" style="swimlane;fontStyle=1;align=center;verticalAlign=top;childLayout=stackLayout;horizontal=1;startSize=26;horizontalStack=0;resizeParent=1;resizeParentMax=0;resizeLast=0;collapsible=1;marginBottom=0;whiteSpace=wrap;html=1;" parent="1" vertex="1">
          <mxGeometry x="384" y="1601" width="172" height="137" as="geometry" />
        </mxCell>
        <mxCell id="ikzWXzJROYv2MbAgpShI-6" value="" style="line;strokeWidth=1;fillColor=none;align=left;verticalAlign=middle;spacingTop=-1;spacingLeft=3;spacingRight=3;rotatable=0;labelPosition=right;points=[];portConstraint=eastwest;strokeColor=inherit;" parent="ikzWXzJROYv2MbAgpShI-5" vertex="1">
          <mxGeometry y="26" width="172" height="8" as="geometry" />
        </mxCell>
        <mxCell id="ikzWXzJROYv2MbAgpShI-7" value="&lt;div&gt;- &#39; &#39; (home)&lt;br&gt;&lt;/div&gt;&lt;div&gt;&lt;span style=&quot;background-color: initial;&quot;&gt;- &#39;create_task/&#39;&lt;/span&gt;&lt;br&gt;&lt;/div&gt;&lt;div&gt;- &#39;confirmation/&#39;&lt;span style=&quot;background-color: initial;&quot;&gt;&lt;br&gt;&lt;/span&gt;&lt;/div&gt;&lt;div&gt;- &#39;update_task/&amp;lt;int:task_id&amp;gt;/&#39;&lt;br&gt;&lt;/div&gt;&lt;div&gt;- &#39;delete_task/&amp;lt;int:task_id&amp;gt;/&#39;&lt;/div&gt;&lt;div&gt;&lt;span style=&quot;background-color: initial;&quot; class=&quot;hljs-operator&quot;&gt;-&lt;/span&gt;&lt;span style=&quot;background-color: initial;&quot;&gt; &lt;/span&gt;&lt;span style=&quot;background-color: initial;&quot; class=&quot;hljs-operator&quot;&gt;/&lt;/span&gt;&lt;span style=&quot;background-color: initial;&quot; class=&quot;hljs-keyword&quot;&gt;view&lt;/span&gt;&lt;span style=&quot;background-color: initial;&quot; class=&quot;hljs-operator&quot;&gt;/&lt;/span&gt;&lt;span style=&quot;background-color: initial;&quot; class=&quot;hljs-operator&quot;&gt;&amp;lt;&lt;/span&gt;&lt;span style=&quot;background-color: initial;&quot; class=&quot;hljs-type&quot;&gt;int&lt;/span&gt;&lt;span style=&quot;background-color: initial;&quot;&gt;:id&lt;/span&gt;&lt;span style=&quot;background-color: initial;&quot; class=&quot;hljs-operator&quot;&gt;&amp;gt;&lt;/span&gt;&lt;span style=&quot;background-color: initial;&quot; class=&quot;hljs-operator&quot;&gt;/&lt;/span&gt;&amp;nbsp;&lt;br&gt;&lt;/div&gt;&lt;div&gt;&lt;br&gt;&lt;/div&gt;" style="text;strokeColor=none;fillColor=none;align=left;verticalAlign=top;spacingLeft=4;spacingRight=4;overflow=hidden;rotatable=0;points=[[0,0.5],[1,0.5]];portConstraint=eastwest;whiteSpace=wrap;html=1;" parent="ikzWXzJROYv2MbAgpShI-5" vertex="1">
          <mxGeometry y="34" width="172" height="103" as="geometry" />
        </mxCell>
        <mxCell id="ikzWXzJROYv2MbAgpShI-8" value="URLs" style="swimlane;fontStyle=1;align=center;verticalAlign=top;childLayout=stackLayout;horizontal=1;startSize=26;horizontalStack=0;resizeParent=1;resizeParentMax=0;resizeLast=0;collapsible=1;marginBottom=0;whiteSpace=wrap;html=1;" parent="1" vertex="1">
          <mxGeometry x="-81" y="1601" width="172" height="137" as="geometry" />
        </mxCell>
        <mxCell id="ikzWXzJROYv2MbAgpShI-9" value="" style="line;strokeWidth=1;fillColor=none;align=left;verticalAlign=middle;spacingTop=-1;spacingLeft=3;spacingRight=3;rotatable=0;labelPosition=right;points=[];portConstraint=eastwest;strokeColor=inherit;" parent="ikzWXzJROYv2MbAgpShI-8" vertex="1">
          <mxGeometry y="26" width="172" height="8" as="geometry" />
        </mxCell>
        <mxCell id="ikzWXzJROYv2MbAgpShI-10" value="&lt;span class=&quot;hljs-operator&quot;&gt;-&lt;/span&gt; &lt;span class=&quot;hljs-operator&quot;&gt;/&lt;/span&gt;create_post&lt;span class=&quot;hljs-operator&quot;&gt;/&lt;/span&gt;&lt;div&gt;&lt;span class=&quot;hljs-operator&quot;&gt;-&lt;/span&gt; &lt;span class=&quot;hljs-operator&quot;&gt;/&lt;/span&gt;view_post&lt;span class=&quot;hljs-operator&quot;&gt;/&lt;/span&gt;&lt;span class=&quot;hljs-operator&quot;&gt;&amp;lt;&lt;/span&gt;&lt;span class=&quot;hljs-type&quot;&gt;int&lt;/span&gt;:id&lt;span class=&quot;hljs-operator&quot;&gt;&amp;gt;&lt;/span&gt;&lt;span class=&quot;hljs-operator&quot;&gt;/&lt;/span&gt;&lt;/div&gt;&lt;div&gt;&lt;span class=&quot;hljs-operator&quot;&gt;-&lt;/span&gt; &lt;span class=&quot;hljs-operator&quot;&gt;/&lt;/span&gt;update_post&lt;span class=&quot;hljs-operator&quot;&gt;/&lt;/span&gt;&lt;span class=&quot;hljs-operator&quot;&gt;&amp;lt;&lt;/span&gt;&lt;span class=&quot;hljs-type&quot;&gt;int&lt;/span&gt;:id&lt;span class=&quot;hljs-operator&quot;&gt;&amp;gt;&lt;/span&gt;&lt;span class=&quot;hljs-operator&quot;&gt;/&lt;/span&gt;edit&lt;span class=&quot;hljs-operator&quot;&gt;/&lt;/span&gt;&lt;/div&gt;&lt;div&gt;&lt;span class=&quot;hljs-operator&quot;&gt;-&lt;/span&gt; &lt;span class=&quot;hljs-operator&quot;&gt;/&lt;/span&gt;delete_post&lt;span class=&quot;hljs-operator&quot;&gt;/&lt;/span&gt;&lt;span class=&quot;hljs-operator&quot;&gt;&amp;lt;&lt;/span&gt;&lt;span class=&quot;hljs-type&quot;&gt;int&lt;/span&gt;:id&lt;span class=&quot;hljs-operator&quot;&gt;&amp;gt;&lt;/span&gt;&lt;span class=&quot;hljs-operator&quot;&gt;/&lt;/span&gt;&lt;span class=&quot;hljs-keyword&quot;&gt;delete&lt;/span&gt;&lt;span class=&quot;hljs-operator&quot;&gt;/&lt;/span&gt;&lt;br&gt;&lt;/div&gt;" style="text;strokeColor=none;fillColor=none;align=left;verticalAlign=top;spacingLeft=4;spacingRight=4;overflow=hidden;rotatable=0;points=[[0,0.5],[1,0.5]];portConstraint=eastwest;whiteSpace=wrap;html=1;" parent="ikzWXzJROYv2MbAgpShI-8" vertex="1">
          <mxGeometry y="34" width="172" height="103" as="geometry" />
        </mxCell>
        <mxCell id="ikzWXzJROYv2MbAgpShI-21" value="Authentication" style="swimlane;fontStyle=1;align=center;verticalAlign=top;childLayout=stackLayout;horizontal=1;startSize=26;horizontalStack=0;resizeParent=1;resizeParentMax=0;resizeLast=0;collapsible=1;marginBottom=0;whiteSpace=wrap;html=1;" parent="1" vertex="1">
          <mxGeometry x="163.00000000000003" y="390" width="160" height="209" as="geometry" />
        </mxCell>
        <mxCell id="ikzWXzJROYv2MbAgpShI-22" value="&lt;div&gt;+ username: str&lt;/div&gt;&lt;div&gt;&lt;span style=&quot;background-color: initial;&quot;&gt;+ password: str&lt;/span&gt;&lt;br&gt;&lt;/div&gt;&lt;div&gt;&lt;br&gt;&lt;/div&gt;&lt;div&gt;&lt;br&gt;&lt;/div&gt;" style="text;strokeColor=none;fillColor=none;align=left;verticalAlign=top;spacingLeft=4;spacingRight=4;overflow=hidden;rotatable=0;points=[[0,0.5],[1,0.5]];portConstraint=eastwest;whiteSpace=wrap;html=1;" parent="ikzWXzJROYv2MbAgpShI-21" vertex="1">
          <mxGeometry y="26" width="160" height="62" as="geometry" />
        </mxCell>
        <mxCell id="ikzWXzJROYv2MbAgpShI-23" value="" style="line;strokeWidth=1;fillColor=none;align=left;verticalAlign=middle;spacingTop=-1;spacingLeft=3;spacingRight=3;rotatable=0;labelPosition=right;points=[];portConstraint=eastwest;strokeColor=inherit;" parent="ikzWXzJROYv2MbAgpShI-21" vertex="1">
          <mxGeometry y="88" width="160" height="8" as="geometry" />
        </mxCell>
        <mxCell id="ikzWXzJROYv2MbAgpShI-24" value="&lt;div&gt;&lt;div&gt;- login()&lt;br&gt;&lt;/div&gt;&lt;/div&gt;&lt;div&gt;- logout()&lt;/div&gt;&lt;div&gt;&lt;br&gt;&lt;/div&gt;" style="text;strokeColor=none;fillColor=none;align=left;verticalAlign=top;spacingLeft=4;spacingRight=4;overflow=hidden;rotatable=0;points=[[0,0.5],[1,0.5]];portConstraint=eastwest;whiteSpace=wrap;html=1;" parent="ikzWXzJROYv2MbAgpShI-21" vertex="1">
          <mxGeometry y="96" width="160" height="113" as="geometry" />
        </mxCell>
        <mxCell id="PPIUtVPLkvScaBUslXsK-1" value="Post" style="swimlane;fontStyle=1;align=center;verticalAlign=top;childLayout=stackLayout;horizontal=1;startSize=26;horizontalStack=0;resizeParent=1;resizeParentMax=0;resizeLast=0;collapsible=1;marginBottom=0;whiteSpace=wrap;html=1;" parent="1" vertex="1">
          <mxGeometry x="-158" y="1006" width="160" height="209" as="geometry" />
        </mxCell>
        <mxCell id="PPIUtVPLkvScaBUslXsK-2" value="&lt;div&gt;+ title: str&lt;/div&gt;&lt;div&gt;+ content: str&lt;/div&gt;&lt;div&gt;&lt;br&gt;&lt;/div&gt;" style="text;strokeColor=none;fillColor=none;align=left;verticalAlign=top;spacingLeft=4;spacingRight=4;overflow=hidden;rotatable=0;points=[[0,0.5],[1,0.5]];portConstraint=eastwest;whiteSpace=wrap;html=1;" parent="PPIUtVPLkvScaBUslXsK-1" vertex="1">
          <mxGeometry y="26" width="160" height="62" as="geometry" />
        </mxCell>
        <mxCell id="PPIUtVPLkvScaBUslXsK-3" value="" style="line;strokeWidth=1;fillColor=none;align=left;verticalAlign=middle;spacingTop=-1;spacingLeft=3;spacingRight=3;rotatable=0;labelPosition=right;points=[];portConstraint=eastwest;strokeColor=inherit;" parent="PPIUtVPLkvScaBUslXsK-1" vertex="1">
          <mxGeometry y="88" width="160" height="8" as="geometry" />
        </mxCell>
        <mxCell id="PPIUtVPLkvScaBUslXsK-4" value="&lt;div&gt;+ get_user()&lt;/div&gt;&lt;div&gt;+ title()&lt;/div&gt;&lt;div&gt;&lt;span style=&quot;background-color: initial;&quot;&gt;+ content()&lt;/span&gt;&lt;br&gt;&lt;/div&gt;&lt;div&gt;&lt;span style=&quot;background-color: initial;&quot;&gt;+ save()&lt;/span&gt;&lt;br&gt;&lt;/div&gt;&lt;div&gt;&lt;br&gt;&lt;/div&gt;" style="text;strokeColor=none;fillColor=none;align=left;verticalAlign=top;spacingLeft=4;spacingRight=4;overflow=hidden;rotatable=0;points=[[0,0.5],[1,0.5]];portConstraint=eastwest;whiteSpace=wrap;html=1;" parent="PPIUtVPLkvScaBUslXsK-1" vertex="1">
          <mxGeometry y="96" width="160" height="113" as="geometry" />
        </mxCell>
        <mxCell id="PPIUtVPLkvScaBUslXsK-5" value="" style="endArrow=none;html=1;rounded=0;dashed=1;dashPattern=1 2;" parent="1" edge="1">
          <mxGeometry relative="1" as="geometry">
            <mxPoint x="3" y="1125" as="sourcePoint" />
            <mxPoint x="158" y="1125" as="targetPoint" />
          </mxGeometry>
        </mxCell>
        <mxCell id="PPIUtVPLkvScaBUslXsK-6" value="Many" style="resizable=0;html=1;whiteSpace=wrap;align=left;verticalAlign=bottom;" parent="PPIUtVPLkvScaBUslXsK-5" connectable="0" vertex="1">
          <mxGeometry x="-1" relative="1" as="geometry" />
        </mxCell>
        <mxCell id="PPIUtVPLkvScaBUslXsK-7" value="1" style="resizable=0;html=1;whiteSpace=wrap;align=right;verticalAlign=bottom;" parent="PPIUtVPLkvScaBUslXsK-5" connectable="0" vertex="1">
          <mxGeometry x="1" relative="1" as="geometry" />
        </mxCell>
        <mxCell id="PPIUtVPLkvScaBUslXsK-8" value="" style="endArrow=none;html=1;rounded=0;dashed=1;dashPattern=1 2;entryX=-0.011;entryY=0.338;entryDx=0;entryDy=0;entryPerimeter=0;" parent="1" edge="1">
          <mxGeometry relative="1" as="geometry">
            <mxPoint x="2" y="1159" as="sourcePoint" />
            <mxPoint x="157" y="1333" as="targetPoint" />
            <Array as="points">
              <mxPoint x="48" y="1159" />
              <mxPoint x="51" y="1333" />
            </Array>
          </mxGeometry>
        </mxCell>
        <mxCell id="PPIUtVPLkvScaBUslXsK-9" value="Many" style="resizable=0;html=1;whiteSpace=wrap;align=left;verticalAlign=bottom;" parent="PPIUtVPLkvScaBUslXsK-8" connectable="0" vertex="1">
          <mxGeometry x="-1" relative="1" as="geometry" />
        </mxCell>
        <mxCell id="PPIUtVPLkvScaBUslXsK-10" value="1" style="resizable=0;html=1;whiteSpace=wrap;align=right;verticalAlign=bottom;" parent="PPIUtVPLkvScaBUslXsK-8" connectable="0" vertex="1">
          <mxGeometry x="1" relative="1" as="geometry" />
        </mxCell>
        <mxCell id="PPIUtVPLkvScaBUslXsK-11" value="" style="endArrow=none;html=1;rounded=0;dashed=1;dashPattern=1 2;exitX=0.497;exitY=1.037;exitDx=0;exitDy=0;exitPerimeter=0;" parent="1" source="PPIUtVPLkvScaBUslXsK-4" edge="1">
          <mxGeometry relative="1" as="geometry">
            <mxPoint x="-72" y="1469" as="sourcePoint" />
            <mxPoint x="157" y="1469" as="targetPoint" />
            <Array as="points">
              <mxPoint x="-78" y="1469" />
            </Array>
          </mxGeometry>
        </mxCell>
        <mxCell id="PPIUtVPLkvScaBUslXsK-12" value="Many" style="resizable=0;html=1;whiteSpace=wrap;align=left;verticalAlign=bottom;" parent="PPIUtVPLkvScaBUslXsK-11" connectable="0" vertex="1">
          <mxGeometry x="-1" relative="1" as="geometry">
            <mxPoint y="25" as="offset" />
          </mxGeometry>
        </mxCell>
        <mxCell id="PPIUtVPLkvScaBUslXsK-13" value="1" style="resizable=0;html=1;whiteSpace=wrap;align=right;verticalAlign=bottom;" parent="PPIUtVPLkvScaBUslXsK-11" connectable="0" vertex="1">
          <mxGeometry x="1" relative="1" as="geometry">
            <mxPoint x="-2" as="offset" />
          </mxGeometry>
        </mxCell>
        <mxCell id="PPIUtVPLkvScaBUslXsK-18" value="Task_views" style="swimlane;fontStyle=1;align=center;verticalAlign=top;childLayout=stackLayout;horizontal=1;startSize=26;horizontalStack=0;resizeParent=1;resizeParentMax=0;resizeLast=0;collapsible=1;marginBottom=0;whiteSpace=wrap;html=1;" parent="1" vertex="1">
          <mxGeometry x="732" y="987" width="179" height="147" as="geometry" />
        </mxCell>
        <mxCell id="PPIUtVPLkvScaBUslXsK-19" value="" style="line;strokeWidth=1;fillColor=none;align=left;verticalAlign=middle;spacingTop=-1;spacingLeft=3;spacingRight=3;rotatable=0;labelPosition=right;points=[];portConstraint=eastwest;strokeColor=inherit;" parent="PPIUtVPLkvScaBUslXsK-18" vertex="1">
          <mxGeometry y="26" width="179" height="8" as="geometry" />
        </mxCell>
        <mxCell id="PPIUtVPLkvScaBUslXsK-20" value="&lt;div&gt;&lt;span class=&quot;hljs-operator&quot;&gt;-&lt;/span&gt; home(request)&lt;/div&gt;&lt;div&gt;&lt;span class=&quot;hljs-operator&quot;&gt;-&lt;/span&gt; create_task(request)&lt;/div&gt;&lt;div&gt;&lt;span class=&quot;hljs-operator&quot;&gt;-&lt;/span&gt; confirmation(request,task_id)&lt;br&gt;&lt;span class=&quot;hljs-operator&quot;&gt;-&lt;/span&gt; update_task(request,&amp;nbsp;task_id)&lt;br&gt;&lt;span class=&quot;hljs-operator&quot;&gt;-&lt;/span&gt; delete_task(request,&amp;nbsp;task_id)&lt;br&gt;&lt;span class=&quot;hljs-operator&quot;&gt;-&lt;/span&gt; view_task(request, task_id)&lt;br&gt;&lt;/div&gt;" style="text;strokeColor=none;fillColor=none;align=left;verticalAlign=top;spacingLeft=4;spacingRight=4;overflow=hidden;rotatable=0;points=[[0,0.5],[1,0.5]];portConstraint=eastwest;whiteSpace=wrap;html=1;" parent="PPIUtVPLkvScaBUslXsK-18" vertex="1">
          <mxGeometry y="34" width="179" height="113" as="geometry" />
        </mxCell>
        <mxCell id="PPIUtVPLkvScaBUslXsK-21" value="" style="endArrow=none;html=1;rounded=0;entryX=0.491;entryY=1.007;entryDx=0;entryDy=0;exitX=0.5;exitY=0;exitDx=0;exitDy=0;startArrow=open;startFill=0;entryPerimeter=0;" parent="1" edge="1">
          <mxGeometry width="50" height="50" relative="1" as="geometry">
            <mxPoint x="821.3109999999999" y="986" as="sourcePoint" />
            <mxPoint x="821.26" y="923" as="targetPoint" />
          </mxGeometry>
        </mxCell>
        <mxCell id="PPIUtVPLkvScaBUslXsK-22" value="PostForm" style="swimlane;fontStyle=1;align=center;verticalAlign=top;childLayout=stackLayout;horizontal=1;startSize=26;horizontalStack=0;resizeParent=1;resizeParentMax=0;resizeLast=0;collapsible=1;marginBottom=0;whiteSpace=wrap;html=1;" parent="1" vertex="1">
          <mxGeometry x="-451" y="810" width="175" height="107" as="geometry" />
        </mxCell>
        <mxCell id="PPIUtVPLkvScaBUslXsK-23" value="" style="line;strokeWidth=1;fillColor=none;align=left;verticalAlign=middle;spacingTop=-1;spacingLeft=3;spacingRight=3;rotatable=0;labelPosition=right;points=[];portConstraint=eastwest;strokeColor=inherit;" parent="PPIUtVPLkvScaBUslXsK-22" vertex="1">
          <mxGeometry y="26" width="175" height="8" as="geometry" />
        </mxCell>
        <mxCell id="PPIUtVPLkvScaBUslXsK-24" value="&lt;div&gt;&lt;span class=&quot;hljs-operator&quot;&gt;-&lt;/span&gt; title&lt;/div&gt;&lt;div&gt;&lt;span class=&quot;hljs-operator&quot;&gt;-&lt;/span&gt;&amp;nbsp;content&lt;span style=&quot;background-color: initial;&quot;&gt;&amp;nbsp;&amp;nbsp;&lt;/span&gt;&lt;/div&gt;" style="text;strokeColor=none;fillColor=none;align=left;verticalAlign=top;spacingLeft=4;spacingRight=4;overflow=hidden;rotatable=0;points=[[0,0.5],[1,0.5]];portConstraint=eastwest;whiteSpace=wrap;html=1;" parent="PPIUtVPLkvScaBUslXsK-22" vertex="1">
          <mxGeometry y="34" width="175" height="73" as="geometry" />
        </mxCell>
        <mxCell id="PPIUtVPLkvScaBUslXsK-25" value="Post_views" style="swimlane;fontStyle=1;align=center;verticalAlign=top;childLayout=stackLayout;horizontal=1;startSize=26;horizontalStack=0;resizeParent=1;resizeParentMax=0;resizeLast=0;collapsible=1;marginBottom=0;whiteSpace=wrap;html=1;" parent="1" vertex="1">
          <mxGeometry x="-451" y="981" width="179" height="147" as="geometry" />
        </mxCell>
        <mxCell id="PPIUtVPLkvScaBUslXsK-26" value="" style="line;strokeWidth=1;fillColor=none;align=left;verticalAlign=middle;spacingTop=-1;spacingLeft=3;spacingRight=3;rotatable=0;labelPosition=right;points=[];portConstraint=eastwest;strokeColor=inherit;" parent="PPIUtVPLkvScaBUslXsK-25" vertex="1">
          <mxGeometry y="26" width="179" height="8" as="geometry" />
        </mxCell>
        <mxCell id="PPIUtVPLkvScaBUslXsK-27" value="&lt;div&gt;&lt;span class=&quot;hljs-operator&quot;&gt;-&lt;/span&gt; create_post(request)&lt;/div&gt;&lt;div&gt;&lt;span class=&quot;hljs-operator&quot;&gt;-&lt;/span&gt; view_post(request, id)&lt;/div&gt;&lt;div&gt;&lt;span class=&quot;hljs-operator&quot;&gt;-&lt;/span&gt; update_post(request, id)&lt;/div&gt;&lt;div&gt;&lt;span class=&quot;hljs-operator&quot;&gt;-&lt;/span&gt; delete_post(request, id)&lt;br&gt;&lt;/div&gt;" style="text;strokeColor=none;fillColor=none;align=left;verticalAlign=top;spacingLeft=4;spacingRight=4;overflow=hidden;rotatable=0;points=[[0,0.5],[1,0.5]];portConstraint=eastwest;whiteSpace=wrap;html=1;" parent="PPIUtVPLkvScaBUslXsK-25" vertex="1">
          <mxGeometry y="34" width="179" height="113" as="geometry" />
        </mxCell>
        <mxCell id="PPIUtVPLkvScaBUslXsK-28" value="" style="endArrow=none;html=1;rounded=0;entryX=0.491;entryY=1.007;entryDx=0;entryDy=0;exitX=0.5;exitY=0;exitDx=0;exitDy=0;startArrow=open;startFill=0;entryPerimeter=0;" parent="1" edge="1">
          <mxGeometry width="50" height="50" relative="1" as="geometry">
            <mxPoint x="-361.6890000000001" y="980" as="sourcePoint" />
            <mxPoint x="-361.74" y="917" as="targetPoint" />
          </mxGeometry>
        </mxCell>
        <mxCell id="PPIUtVPLkvScaBUslXsK-38" value="RegisterForm" style="swimlane;fontStyle=1;align=center;verticalAlign=top;childLayout=stackLayout;horizontal=1;startSize=26;horizontalStack=0;resizeParent=1;resizeParentMax=0;resizeLast=0;collapsible=1;marginBottom=0;whiteSpace=wrap;html=1;" parent="1" vertex="1">
          <mxGeometry x="163.00000000000003" y="91" width="160" height="209" as="geometry" />
        </mxCell>
        <mxCell id="PPIUtVPLkvScaBUslXsK-39" value="&lt;div&gt;+ username: str&lt;/div&gt;&lt;div&gt;+ email: str&lt;/div&gt;&lt;div&gt;- password1: str&lt;br&gt;&lt;/div&gt;&lt;div&gt;- password2: str&lt;br&gt;&lt;/div&gt;&lt;div&gt;&lt;br&gt;&lt;/div&gt;&lt;div&gt;&lt;br&gt;&lt;/div&gt;" style="text;strokeColor=none;fillColor=none;align=left;verticalAlign=top;spacingLeft=4;spacingRight=4;overflow=hidden;rotatable=0;points=[[0,0.5],[1,0.5]];portConstraint=eastwest;whiteSpace=wrap;html=1;" parent="PPIUtVPLkvScaBUslXsK-38" vertex="1">
          <mxGeometry y="26" width="160" height="62" as="geometry" />
        </mxCell>
        <mxCell id="PPIUtVPLkvScaBUslXsK-40" value="" style="line;strokeWidth=1;fillColor=none;align=left;verticalAlign=middle;spacingTop=-1;spacingLeft=3;spacingRight=3;rotatable=0;labelPosition=right;points=[];portConstraint=eastwest;strokeColor=inherit;" parent="PPIUtVPLkvScaBUslXsK-38" vertex="1">
          <mxGeometry y="88" width="160" height="8" as="geometry" />
        </mxCell>
        <mxCell id="PPIUtVPLkvScaBUslXsK-41" value="&lt;div&gt;&lt;span style=&quot;background-color: initial;&quot;&gt;- register()&lt;/span&gt;&lt;br&gt;&lt;/div&gt;" style="text;strokeColor=none;fillColor=none;align=left;verticalAlign=top;spacingLeft=4;spacingRight=4;overflow=hidden;rotatable=0;points=[[0,0.5],[1,0.5]];portConstraint=eastwest;whiteSpace=wrap;html=1;" parent="PPIUtVPLkvScaBUslXsK-38" vertex="1">
          <mxGeometry y="96" width="160" height="113" as="geometry" />
        </mxCell>
        <mxCell id="PPIUtVPLkvScaBUslXsK-43" value="" style="endArrow=block;html=1;rounded=0;entryX=0.5;entryY=0;entryDx=0;entryDy=0;endFill=0;" parent="PPIUtVPLkvScaBUslXsK-38" edge="1">
          <mxGeometry width="50" height="50" relative="1" as="geometry">
            <mxPoint x="78.99999999999997" y="210" as="sourcePoint" />
            <mxPoint x="79.46999999999997" y="299" as="targetPoint" />
          </mxGeometry>
        </mxCell>
        <mxCell id="PPIUtVPLkvScaBUslXsK-42" value="" style="endArrow=block;html=1;rounded=0;exitX=0.5;exitY=1;exitDx=0;exitDy=0;entryX=0.5;entryY=0;entryDx=0;entryDy=0;endFill=0;" parent="1" edge="1">
          <mxGeometry width="50" height="50" relative="1" as="geometry">
            <mxPoint x="238.47" y="597" as="sourcePoint" />
            <mxPoint x="238.47" y="716" as="targetPoint" />
          </mxGeometry>
        </mxCell>
        <mxCell id="PPIUtVPLkvScaBUslXsK-44" value="URLs" style="swimlane;fontStyle=1;align=center;verticalAlign=top;childLayout=stackLayout;horizontal=1;startSize=26;horizontalStack=0;resizeParent=1;resizeParentMax=0;resizeLast=0;collapsible=1;marginBottom=0;whiteSpace=wrap;html=1;" parent="1" vertex="1">
          <mxGeometry x="151" y="1601" width="172" height="137" as="geometry" />
        </mxCell>
        <mxCell id="PPIUtVPLkvScaBUslXsK-45" value="" style="line;strokeWidth=1;fillColor=none;align=left;verticalAlign=middle;spacingTop=-1;spacingLeft=3;spacingRight=3;rotatable=0;labelPosition=right;points=[];portConstraint=eastwest;strokeColor=inherit;" parent="PPIUtVPLkvScaBUslXsK-44" vertex="1">
          <mxGeometry y="26" width="172" height="8" as="geometry" />
        </mxCell>
        <mxCell id="PPIUtVPLkvScaBUslXsK-46" value="&lt;div&gt;- &#39;register/&#39;&lt;/div&gt;&lt;div&gt;- &#39;login/&#39;&lt;/div&gt;&lt;div&gt;- &#39;logout/&#39;&lt;/div&gt;&lt;div&gt;&lt;span class=&quot;hljs-operator&quot;&gt;-&lt;/span&gt; &lt;span class=&quot;hljs-operator&quot;&gt;/&lt;/span&gt;admin&lt;span class=&quot;hljs-operator&quot;&gt;/&lt;/span&gt;&lt;br&gt;&lt;/div&gt;" style="text;strokeColor=none;fillColor=none;align=left;verticalAlign=top;spacingLeft=4;spacingRight=4;overflow=hidden;rotatable=0;points=[[0,0.5],[1,0.5]];portConstraint=eastwest;whiteSpace=wrap;html=1;" parent="PPIUtVPLkvScaBUslXsK-44" vertex="1">
          <mxGeometry y="34" width="172" height="103" as="geometry" />
        </mxCell>
        <mxCell id="PPIUtVPLkvScaBUslXsK-47" value="Tests" style="swimlane;fontStyle=1;align=center;verticalAlign=top;childLayout=stackLayout;horizontal=1;startSize=26;horizontalStack=0;resizeParent=1;resizeParentMax=0;resizeLast=0;collapsible=1;marginBottom=0;whiteSpace=wrap;html=1;" parent="1" vertex="1">
          <mxGeometry x="154" y="1833" width="172" height="137" as="geometry" />
        </mxCell>
        <mxCell id="PPIUtVPLkvScaBUslXsK-48" value="" style="line;strokeWidth=1;fillColor=none;align=left;verticalAlign=middle;spacingTop=-1;spacingLeft=3;spacingRight=3;rotatable=0;labelPosition=right;points=[];portConstraint=eastwest;strokeColor=inherit;" parent="PPIUtVPLkvScaBUslXsK-47" vertex="1">
          <mxGeometry y="26" width="172" height="8" as="geometry" />
        </mxCell>
        <mxCell id="PPIUtVPLkvScaBUslXsK-49" value="&lt;div&gt;&lt;span class=&quot;hljs-operator&quot;&gt;-&lt;/span&gt; TaskTests&lt;/div&gt;&lt;div&gt;&lt;span class=&quot;hljs-operator&quot;&gt;-&lt;/span&gt; TaskAndPostTests&lt;/div&gt;&lt;div&gt;&lt;span class=&quot;hljs-operator&quot;&gt;-&lt;/span&gt; RegisterViewTest&lt;/div&gt;&lt;div&gt;&lt;span class=&quot;hljs-operator&quot;&gt;-&lt;/span&gt; LoginViewTest&lt;/div&gt;&lt;div&gt;&lt;span class=&quot;hljs-operator&quot;&gt;-&lt;/span&gt; LogoutViewTest&amp;nbsp;&amp;nbsp;&lt;br&gt;&lt;/div&gt;" style="text;strokeColor=none;fillColor=none;align=left;verticalAlign=top;spacingLeft=4;spacingRight=4;overflow=hidden;rotatable=0;points=[[0,0.5],[1,0.5]];portConstraint=eastwest;whiteSpace=wrap;html=1;" parent="PPIUtVPLkvScaBUslXsK-47" vertex="1">
          <mxGeometry y="34" width="172" height="103" as="geometry" />
        </mxCell>
      </root>
    </mxGraphModel>
  </diagram>
</mxfile>
